<?xml version="1.0" encoding="UTF-8"?>
<svg id="Capa_1" xmlns="http://www.w3.org/2000/svg" version="1.1" viewBox="0 0 3840 2160">
  <!-- Generator: Adobe Illustrator 30.2.1, SVG Export Plug-In . SVG Version: 2.1.1 Build 1)  -->
  <path d="M1683.57,488.42c39.94-39.08,75.37-45.16,106.44-18.08,66.52,54.25,102.01,183.88-4.43,334.5-97.58,135.7-319.39,361.69-425.83,521.41-110.87,168.71-115.37,298.33,35.5,292.26,181.87-6.07,425.83-210.95,581.06-418.86,22.15-27.19,53.22-30.22,70.94-3.04,17.78,27.06,17.78,102.44-39.88,186.79-115.37,165.79-394.82,331.46-638.78,322.49-239.53-9.11-363.76-105.47-363.76-247.12-141.95,123.55-341.54,235.09-554.42,235.09-412.55,0-496.84-382.81-128.65-747.41,359.33-355.5,709.73-491.2,931.54-491.2,190.74,0,279.46,99.53,270.54,217.01,57.71-72.34,110.94-135.58,159.72-183.88v.02ZM1328.68,611.98c-141.95-8.98-465.77,186.91-709.73,455.03-235.09,259.25-292.75,524.33-119.74,527.36,181.87,3.04,412.49-189.83,638.72-455.03,279.46-331.46,319.39-518.26,190.74-527.36Z"/>
  <path d="M2102.22,1204.09c-71.24-1.9-99.37-45.86-75.92-96.8,19.69-42.66,76.86-90.42,117.18-121-42.18,17.83-83.44,24.19-114.37,24.19-61.87,96.17-159.37,192.34-257.81,192.34-62.81,0-113.44-48.41-68.44-121.64,18.76-31.19,180.8-207.08,221.11-256.1-30.94-.64-184.37-9.56-192.8-17.86-8.44-8.26-3.74-13.37,10.31-12.72,30,1.26,187.19-.64,209.69-1.92,29.06-35.02,54.37-64.94,71.24-78.96,8.44-8.93,17.82-8.28,22.5,0,10.31,17.18,9.37,39.48-13.12,73.24,153.19,0,189.02,12.11,197.46,22.3,5.62,7.01-140.27,10.19-154.34,9.54-18.76-.64-42.18-.64-67.5.64-36.55,43.3-212.68,226.2-248.29,279.68-31.87,47.78-18.76,86.63,19.69,85.98,56.24-1.26,154.68-79.6,212.81-178.33-70.31-19.08,21.56-105.07,60-106.36,30.94-1.28,21.56,38.22-3.74,79.62,32.81-1.92,67.49-12.74,102.18-29.32,12.18-5.72,18.76-7.62,27.19-1.26,17.81,14,42.18,42.66,14.05,64.31-44.99,34.4-91.87,77.09-107.81,110.84-16.86,35.02-4.68,60.49,23.45,61.13,38.42,1.28,86.24-40.12,117.18-87.89,3.76-5.1,10.31-6.38,14.06,0,4.68,7.64,6.55,23.54-4.69,41.4-23.44,38.2-79.69,66.23-131.24,64.94h-.02Z"/>
  <path d="M2214.7,1109.86c23.45-46.51,85.32-121.67,120-154.78,8.44-7.64,15.01-9.54,22.5-3.83,14.06,10.21,21.58,37.58-.94,69.44-19.69,28.01-59.06,71.32-78.76,103.18-22.5,36.94-20.63,61.76,9.37,60.49,42.19-1.26,93.76-43.3,121.88-87.24,4.68-5.75,11.24-5.1,14.99,0,7.5,10.19,4.69,23.57-6.56,39.48-28.12,39.5-87.18,66.23-139.68,66.23-71.24,0-89.05-40.76-62.81-92.96h0Z"/>
  <path d="M2765.93,1097.75c5.63-8.93,15.95-6.38,17.82,0,1.87,5.72,3.76,22.3-12.18,42.01-35.63,43.97-99.37,64.98-166.87,68.16-60,2.54-99.37-3.18-132.18-23.57-19.69-12.08-29.06-26.72-31.87-42.66-44.06,54.77-91.87,119.74-136.87,190.44-3.74,5.72-10.31,7.01-15.92,1.26-14.06-13.37-18.76-31.19-.95-70.06,28.13-61.76,185.63-263.68,244.69-317.16,9.37-8.28,17.82-7.01,22.5.64,4.69,8.26,6.56,17.83,5.63,28.66,41.24-24.22,96.55-42.05,136.86-13.39,45,32.5,24.38,89.16-10.31,141.4-28.12,42.05-62.81,72.62-98.42,87.26,91.87-3.83,148.12-49.69,178.12-92.99h-.04ZM2491.25,1170.98c30,16.57,90.94-29.94,134.99-91.07,36.56-50.96,46.88-103.81,23.45-111.46-22.5-7.64-80.63,24.19-124.69,73.24-10.31,11.47-20.63,22.93-31.87,36.3-23.44,40.12-28.13,78.34-1.87,92.99Z"/>
  <path d="M3127.8,1097.75c5.63-8.93,15.95-6.38,17.82,0,1.87,5.72,3.76,22.3-12.18,42.01-35.63,43.97-99.37,64.98-166.87,68.16-60,2.54-99.37-3.18-132.18-23.57-19.69-12.08-29.06-26.72-31.87-42.66-44.06,54.77-91.87,119.74-136.87,190.44-3.74,5.72-10.31,7.01-15.92,1.26-14.06-13.37-18.76-31.19-.95-70.06,28.13-61.76,185.63-263.68,244.69-317.16,9.37-8.28,17.82-7.01,22.5.64,4.69,8.26,6.56,17.83,5.63,28.66,41.24-24.22,96.55-42.05,136.86-13.39,45,32.5,24.38,89.16-10.31,141.4-28.12,42.05-62.81,72.62-98.42,87.26,91.87-3.83,148.12-49.69,178.12-92.99h-.04ZM2853.12,1170.98c30,16.57,90.94-29.94,134.99-91.07,36.56-50.96,46.88-103.81,23.45-111.46-22.5-7.64-80.63,24.19-124.69,73.24-10.31,11.47-20.63,22.93-31.87,36.3-23.44,40.12-28.13,78.34-1.87,92.99Z"/>
  <path d="M3612.46,1202.82c-71.24-2.54-99.37-45.84-75.92-97.43,19.69-42.68,75.92-89.81,116.24-120.38-41.24,17.83-83.44,24.22-112.5,24.22-77.82,110.82-179.06,191.05-290.62,192.34-119.06,1.26-159.37-77.7-98.44-159.22,59.06-78.98,154.69-114.64,201.55-96.17,23.45,9.54,40.31,18.47,55.32,32.47,15.95,15.29,6.56,52.87-30.94,85.34-44.06,38.83-106.87,54.77-172.5,19.12-30,57.95-6.56,99.35,41.24,100.63,103.12,3.18,206.24-97.45,257.81-178.33-72.19-20.39,19.69-105.1,59.05-106.38,29.06-.61,19.69,38.22-3.74,79.62,32.81-3.18,65.63-13.37,102.18-29.94,11.24-5.1,19.69-8.28,26.26-1.9,18.76,14,42.18,44.56,14.05,65.59-44.05,33.12-91.87,76.42-107.8,110.82-15.95,35.02-4.69,60.52,23.44,61.13,39.37,1.28,87.19-40.76,117.19-87.89,3.74-5.1,10.31-6.36,14.05-.64,4.68,7.01,6.56,23.57-4.68,41.4-23.45,38.22-79.69,67.51-131.26,65.59h0ZM3323.73,1037.88c30-26.11,49.68-59.23,37.49-66.23-20.63-12.11-97.49,28.01-140.63,86.6-2.81,3.2-4.68,7.64-7.5,10.85,45.95,19.08,82.51-7.03,110.64-31.22Z"/>
  <path d="M2484.16,679.33c7.81-9.34,12.37-7.19,10.14,4.78l-12.42,66.62c-2.23,11.96,5.9,21.76,18.07,21.76h71.54c12.18,0,13.33,4.67,2.58,10.36l-89.38,47.35c-10.75,5.7-21.38,20.15-23.62,32.12l-12.42,66.62c-2.23,11.96-10.57,14.23-18.54,5.02l-29.92-34.58c-7.97-9.2-23.28-12.08-34.04-6.38l-89.38,47.35c-10.75,5.7-13.16,2.72-5.36-6.62l63.71-76.18c7.81-9.34,7.68-24.52-.28-33.72l-29.92-34.58c-7.97-9.2-4.52-16.74,7.66-16.74h71.54c12.18,0,28.52-7.64,36.34-16.98l63.71-76.18h-.02Z"/>
</svg>