<?xml version="1.0" encoding="UTF-8"?>
<svg id="OBJECTS" xmlns="http://www.w3.org/2000/svg" xmlns:xlink="http://www.w3.org/1999/xlink" viewBox="0 0 70 70">
  <defs>
    <style>
      .cls-1, .cls-2 {
        fill: none;
      }

      .cls-3 {
        fill: gray;
      }

      .cls-2 {
        stroke-width: .73px;
      }

      .cls-2, .cls-4 {
        stroke: #fff;
        stroke-miterlimit: 10;
      }

      .cls-5 {
        clip-path: url(#clippath);
      }
    </style>
    <clipPath id="clippath">
      <circle class="cls-1" cx="35" cy="35" r="29.94"/>
    </clipPath>
  </defs>
  <g>
    <circle class="cls-2" cx="35" cy="35" r="33.45"/>
    <g class="cls-5">
      <g>
        <path class="cls-3" d="M57.18,5.62c.79.07,1.65.33,1.97.99.89,1.81,1.95,3.4,3.71,4.45.2.12.41.62.33.72-1.46,1.78.55,1.74,1.24,2.37.42.38.9.69,1.33,1.06,1.77,1.54,1.79,1.94.22,4.21-.71-.68-1.42-1.36-2.13-2.04-.69-.53.14-1.51-.58-2.05-2.43,2.85-2.5,3.41,0,5.4,1.14.9,1.53,1.84,1.13,3.36.84-1.17,1.67-1.87,2.99-1.46.28.28.56.56.84.84,1.66,1.37,1.49,3.41,1.85,5.23.18.91-.76.82-1.27.84.03,1.15,3.09,1.24.7,2.85-.42.28.08.65.27.95.35.55.98,1.13.14,1.7-.53.36-1.22.15-1.52-.37-.83-1.42-1.9-.83-3-.47-.08.8.69,1.04,1.08,1.53,1.04,1.32,1.06,1.3-.75,1.98-.65.25-1.39.56-.9,1.42.49.86.85.31,1.49-.09,1.03-.64,2.3.05,3.46.19.19.02.44.64.42.98-.06,1.21.06,2.48-.69,3.57-2.21-.16-3.01-2.74-5.21-2.87,0,.97.77,1.21,1.26,1.5,2.56,1.49,2.73,4.11,3.3,6.56.16.71-.22,1.3-.4,1.94-.31,1.1-.94,1.01-1.73.52-.73-.44-1.19-1.26-2.07-1.48-1.23,1.73-1.24,1.79.44,2.28,1.11.32,1.8.94,2.15,1.98-1.05,1.2-1.64-.86-2.54-.18-.17.58.31.84.59,1.2.35.45.89.9.54,1.5-.42.73-.93,1.44-1.55,2-.37.34-.89-.06-1.26-.37-.73-.62-1.43-1.28-2.18-1.87-.56-.44-1.17-.67-1.9.21,1.3.69,2.86.95,3.71,2.25.26.39.66.74.46,1.27-.27.72-.93.45-1.47.54-1.19.2-2.05-1.04-3.23-.76-.64,1.16,1.22,1.51.61,2.76-2.2-.15-4.15-1.51-4.87-3.22-.79-1.89-2.14-2.77-3.51-3.86-.37-.29-.75-.57-1.2-.91-.31.89.41,1.07.75,1.38,1.26,1.13,2.43,2.18,3.25,3.84.83,1.68,2.66,2.94,4.24,4.14,1.31.99.92,1.62,0,2.46-1.67,1.5-3.55,2.55-5.82,2.82-.68.08-1.68-.1-1.4,1.21.1.46-.26.62-.69.66-3.16.29-6.04,2.41-9.4,1.45-.16-.04-.43.02-.54.13-1.79,1.81-2.64-.03-3.67-.97-.97-.89-1.85-1.86-.2-2.98.84-.57.29-1.41.37-2.12-.03-1.01-.66-1.73-1.17-2.53-1.27-2.03-3.31-3.39-4.62-5.38-.36-1.55-.84-3.01-2.21-4.03-.43-.32-.94-.84-1-1.31-.19-1.54-1.23-1.36-2.26-1.31-1.2-.81-2-2.22-3.62-2.37-.5-.39-1.08-.52-1.69-.58-.56-.98-.99-2.08-1.73-2.9-.75-.83.16-2.54-1.67-2.95.63,1.72.6,3.46-.35,4.48-.61.65-1.61-.92-2.45-1.47-.21-.14-.35-.14-.5.15.29.31.62.64.93.99.37.42.88.87.46,1.46-.39.55-1.04.25-1.59.25-1.17-.78-2.15-1.75-2.92-2.94-.65-.96.02-1.79.24-2.68.05-.19-.19-.53-.38-.69-.25-.2-.62-.1-.73.18-.92,2.23-2,.88-3.05.16-.96-.65-1.55-1.85-2.9-2.14,0,.37-.07.65.01.7,2.34,1.56,3.39,3.86,3.8,6.54.01.08.1.16.16.23,1.21,1.01,2.41,2.03,3.62,3.04.14.72.28,1.45.41,2.17-.87-.4-1.74-.81-2.62-1.21.13-.08.26-.17.39-.25,1.69,1.79,3.39,3.59,4.88,5.17-.42-1.29-2.69-1.72-2.64-3.69.55-.01,1.09-.03,1.64-.04.42.41.84.83,1.26,1.24,1.05,1.39,2.71,2.26,3.42,3.95-.42,1.2.34,1.81,1.2,2.36-.02,1-.4,1.53-1.37.83-1.21-.86-2.36-1.81-3.61-2.79-.1.93.71,1.18.94,1.76.15.37.29.75-.08,1.02-.35.26-.78.13-1.02-.14-1.43-1.56-3.58-2.5-4-4.94-.21-1.22-1.37-1.72-2.46-2.15-.17-.17-.34-.33-.51-.5-.94-3.09-3.55-4.8-5.69-6.91l-1.91-1.85c-.98-.98-2.42-1.58-2.73-3.06.74-1.04,1.69.27,2.4-.35-.17-.96-.85-1.28-1.52-1.67-1.33-.76-1.75-1.66-.96-2.65.81-1.02.53-2.11.8-3.12.71-2.62.5-5.5,2.07-7.88.21-.31.64-.61.63-.9-.1-2.32,1.17-3.17,3.27-3.32.44-.03.88-.36,1.12-.84.06-1.08-2.13-1.63-1.15-2.51,1.19-1.08,1.85.76,2.65,1.39,1.17.91,2.43,1.88,2.08,3.7.83-.11,1.31-.39,1.84-.82-.5-.46-1-.89-1.46-1.35-.67-.67-1.62-1.19-1.8-2.18-.19-1.07,1.09-1.16,1.58-1.85.83-1.19,1.68-2.13.05-3.35-.42-.32-.54-1.09-.07-1.57,1.07-1.1,1.61-2.58,2.78-3.61,1.35-1.17,2.13-1.19,3.32.08,1.5,1.62,1.54,1.64,2.56-.31.29-.55.61-.96,1.14-1.22.91-.45,1.29-1.41,1.99-2,.65-.55.12-2.3,1.72-1.77,1.41.47,2.61,2.41,2.59,3.68-.02,1.22-.91,2.31-.51,3.87.53-1.19,2.24-.64,2.17-2.55-.06-1.69-.16-3.25-1.58-4.05-1.43-.81-2.64-1.81-3.53-3.19,3.19-2.44,6.33-3.25,9.72-.83-.1,1.03-.19,2.07-1.65,1.15-.47-.3-.86-.78-1.74-.56.04.88-.69,2.05.52,2.6.88.4,1.96,1.54,3.06.24.68-.8,1.26-.42,1.97,0,1.51.9,1.73,2.5,2.16,4.22.59-.85.48-1.71,1.23-2.09,1.16-.59.64-1.63.63-2.53.83-1.03.61-2.09.09-3.15.5-.82,1.58-.96,2.05-1.91.77-1.56,1.36-1.67,2.19-.24.95,1.62,2.12,2.02,3.78,1.63,1.05.84,2.11,1.69,3.16,2.53-.13.45-.23,1.13-.75,1.06-1.29-.19-1.28,1.32-2.08,1.48-.98.2-1.57-.99-2.55-1.07-.58-.05-1.34,0-1.44.57-.12.67.6.99,1.16.76.84-.34,1.46-.04,2.12.37.56.35,1.19.27,1.59-.14.91-.94,2.29-.83,3.26-1.59.42.18.84.35,1.27.53,1.27,1.75,3.03,2.24,5.13,2.34,2.18.1,2.17.29,1.9-2.1ZM33.79,17.73c-.62-.45-1.26-.87-1.83-1.37-.36-.32-.63-.78-.2-1.24.41-.43.94-.23,1.3.06,1.32,1.03,3.1,1.65,3.32,3.69.04.42.32.71.78.68.16-.01.44-.24.42-.3-.27-1.04.34-2.66-1.02-3-1.83-.46-2.92-1.72-4.19-2.85-.45-.4-1.01-.81-1.46-.2-1.05,1.42-1.93,0-2.86-.33,1.2,2.5,2.16,5.02,5.74,4.87ZM47.96,24.84c.65-.06,1.4-.01,1.75-.69.4-.78-.26-1.21-.76-1.63-.94-.78-1.9-1.56-2.88-2.29-.44-.33-.99-.73-1.54-.31-.5.38-.39,1.04-.32,1.59.18,1.53,2.2,3.3,3.75,3.34ZM30.15,52.09c.25-.82-.56-1.12-.83-1.67-.21-.43-.52-.87-.03-1.26.46-.36.92-.09,1.28.21,1.02.86,1.98,1.77,2.63,2.97.49.91,1.08.86,1.73.11-2.11-1.83-4.53-3.27-5.02-6.26-.6.21-.28.84-.57,1.2-.3.36-.62.73-.82,1.15-.88,1.81-.59,2.42,1.62,3.55ZM35.5,23.04c-2.31-2-4.27-4.53-7.93-5.59,2.73,2.36,5.09,4.3,7.93,5.59ZM50.87,59.35c-.7-.7-1.32-1.63-2.33-.69-.71.66-.46,1.58.11,2.32.29.37.57.78.94,1.06.83.62.11,1.52.4,2.39,1.93-1.09.9-1.94.07-2.88-1.1-1.25-1.07-1.28.8-2.19ZM59.93,44.91c-1.28.59-2.4.84-3.62-.06-.64-.48-1.45.21-1.6.73-.2.73.62,1.09,1.22,1.3.63.22,1.21-.53,1.91-.22,1.74.75,1.66-.71,2.08-1.75ZM16.98,26.16c-1.13-3.11-4.72-1.83-6.23-3.94.72,1.49,3.89,3.43,6.23,3.94ZM37.11,27c.82,1.58,2.34,2.6,2.91,4.33.14.41.81.45,1.24.14.54-.39.26-.8-.05-1.19-1.12-1.36-2.18-2.79-4.1-3.28ZM8.03,38.37c-.83-.88-1.65-1.98-2.19-1.44-.78.78-1.64.76-2.46,1.1-.44.18-.91.47-.57,1.05.24.42.77.81,1.12.31.66-.94,1.36-.64,2.22-.46.47.1,1.04-.29,1.88-.56ZM52.26,51.55c.18.8,1.61.96,1.08,2.04-.37.76-1.22-.2-1.72.34,1.6,1.25,2.28,1.29,2.66-.11.23-.86,1.27-1.74.79-2.44-.77-1.11-1.82.23-2.81.16ZM67.38,30.78c-1.17-3.07-4.09-3.73-6.52-5.07,1.57,2.47,5.11,2.4,6.52,5.07ZM33.33,43.51c-.77-2.13-1.12-2.42-6.46-5.38,2.2,2.21,4.15,3.8,6.46,5.38ZM46.33,59.01q-5.64-1.56-7.61-.59c1.22,1.02,2.35-.89,3.49-.11,1.07.72,2.18,1.07,4.12.7ZM48.26,33.01c.81,1.15,2.05,1.77,2.69,2.97.27.51.63.66,1.11.2.39-.38.6-.81.09-1.18-1.18-.86-2.26-1.95-3.9-1.99ZM31.99,44.61c1.09.93-.46,2.05.29,2.92.63.74,1.22,1.59,2.37,1.76-1.98-1.04-.16-3.89-2.66-4.68ZM24.66,33.83c.6-.41,1.08-.9.53-1.44-1.45-1.4-3-2.71-4.51-4.05.9,2.25,3.33,3.13,3.98,5.49ZM31.19,22.61c-.99-.93-1.7-1.96-3.25-2.44.4,1.08,1.66,1.41,1.5,2.44-.1.68-.94,1.56.2,1.87.58.15.65-1.17,1.4-1.41.05-.02.06-.16.15-.45Z"/>
        <path class="cls-3" d="M18.69,61.4c-.86-.55-1.62-1.16-1.2-2.36.91.37,1.82.73,2.73,1.1.24.21.48.42.72.62.72.91,1.28,2.54,2.52.36.33-.58,1.08-.27,1.52.11.8.68,1.65.91,2.65.6,1.08,1.12,2.36,2.06,3.08,3.49-.56.28-1.13.28-1.71.06-.57-.51-1-1.79-1.91-.95-.57.53-.86,1.8.02,2.56,1.45,1.24,2.02,3.21,3.62,4.31,0,.55,0,1.1,0,1.65-.54,0-1.08,0-1.61,0l-.19-.16c-1.06-1.08-2.67-2.01-3.04-3.29-.56-1.93-1.88-2.05-3.27-2.45-.15-.15-.3-.31-.45-.46-.63-1.16-2.45-1.78-1.62-3.69.08-.19-1.21-.98-1.86-1.49Z"/>
        <path class="cls-3" d="M-1.04,45.73c.64.62,1.28,1.24,1.91,1.85-.22,1.27,2.63,1.98.64,3.62-.23.19.37.66.7.68,1.93.09,2.96,1.65,4.36,2.6.17.17.34.33.51.5.11.46.39.99.06,1.37-.54.63-1.03.07-1.46-.26-.96-.73-1.63-1.84-3.13-2.5.25,1.6,1.61,1.9,2.11,2.85.23.43.54.87.18,1.3-.41.49-.88.17-1.24-.15-1.3-1.13-2.6-2.27-3.87-3.43-.87-.8-.88-.82-.51-2.86.11-.58-.31-.64-.58-.78-1.84-.96-1.23-2.6-1.08-4.05.07-.68.82-.69,1.39-.75Z"/>
        <path class="cls-3" d="M12.8,63.56c2.1-.43,4.97,1.08,5.47,2.88.2.71-.86,2.8-1.69,3.41-.95.69-1.59.02-2.29-.45-1.11-.74-2.3-1.38-3.32-2.22-.92-.76-1.37-1.7.18-2.38.67.2,1.39.9,2.03.26.44-.44-.06-1.03-.37-1.49Z"/>
        <path class="cls-3" d="M57.18,5.62c.27,2.39.28,2.21-1.9,2.1-2.1-.1-3.86-.59-5.13-2.34.62-.76.39-1.54.05-2.33.74-1.6,1.94-1.73,3.25-.85,1.4.94,2.89,1.83,3.73,3.41Z"/>
        <path class="cls-3" d="M22.16,66.58c.15.15.3.31.45.46,1.5,1.39,1.62,3.09.99,4.89-.32.92-.83,1.82-2.08,1.16-1.1-.58-2.46-.13-3.5-.99-.69-.57-1-.95-.3-1.81.94-1.16,2.51-1.83,2.65-3.7.04-.6,1.16-.05,1.79,0Z"/>
        <path class="cls-3" d="M12.8,63.56c.31.46.81,1.05.37,1.49-.64.64-1.35-.05-2.03-.26-.68-1.01-1.52-1.81-2.71-2.2-.92-.85-1.94-1.58-2.63-2.65-.16-.51.13-.92.3-1.36.54-1.39.8-1.54,1.92-.56,1.55,1.36,3.44,2.48,4,4.71.08.32.5.55.76.82Z"/>
        <path class="cls-3" d="M30.58,58.88c1.31,1.99,3.35,3.35,4.62,5.38.51.81,1.14,1.52,1.17,2.53-.87-.04-1.74-.07-2.61-.11-.44-.44-.88-.88-1.31-1.31-.02-2.22-2.14-3.12-3.01-4.8-.52-.69-1.56-1.1-1.33-2.21,1.06-.52,1.63.58,2.47.52Z"/>
        <path class="cls-3" d="M36.32,4.56c-.41.11-.65.36-.67.8-.06,1.04-.66,1.16-1.31.59-1.04-.92-2.34-1.7-2.48-3.32.52-.12,1.36-.08.82-.97-.57-.93-1.86-1.33-2.05-2.73,1.17-.53,1.76.37,2.31,1.01.94,1.1,2.01,1.7,3.47,1.47.52,1.07.74,2.12-.09,3.15Z"/>
        <path class="cls-3" d="M30.72,72.94c0-.55,0-1.1,0-1.65.99-.34,1-1.68,2.02-1.99l.94.78c.97,1.02,1.98,2.01,2.91,3.07.81.92.61,1.3-.57,1.79-1.03.43-1.83,0-2.66-.44-.91-.46-1.52-1.45-2.64-1.56Z"/>
        <path class="cls-3" d="M33.68,70.08c-.31-.26-.63-.52-.94-.78-.53-.5-1.01-1.31-1.85-.93-1.59.74-2.27-.48-2.96-1.37-1-1.27-.09-1.59,1.05-1.63.58.22,1.15.22,1.71-.06.59-.15,1.17-.17,1.75.05.44.44.88.88,1.31,1.31.29,1.14.78,2.28-.08,3.4Z"/>
        <path class="cls-3" d="M50.2,3.06c.34.78.58,1.56-.05,2.33-.42-.18-.85-.36-1.27-.53-.22-.67-.8-1.02-1.3-1.45-1.05-.84-2.11-1.69-3.16-2.53-.23-.58-.84-1.03-.6-1.94,1.82.08,3.47.13,4.37,2.19.34.78,1.32,1.29,2,1.93Z"/>
        <path class="cls-3" d="M5.81,59.94c.68,1.07,1.71,1.81,2.63,2.65.27.56,1,.95.68,1.74-2.09-.56-7.31-5.32-8.35-7.78,1.26.21,1.8,1.13,2.53,1.72.79.63,1.26,1.74,2.52,1.66Z"/>
        <path class="cls-3" d="M68.25,23.47c-.28-.28-.56-.56-.84-.84-1.34-1.17-2.7-2.31-4-3.53-.8-.75-.91-1.46.44-1.72.71.68,1.42,1.36,2.13,2.04.88.84,1.81,1.64,2.64,2.52.56.6.47,1.19-.36,1.53Z"/>
        <path class="cls-3" d="M15.18,8.26c-.79-.11-1.26-.66-1.34-1.51-.08-.95,1.1-1.86,2.18-1.7.71.1,1.31.41,1.34,1.23.04.87-1.23,2.04-2.18,1.98Z"/>
        <path class="cls-3" d="M20.93,60.76c-.24-.21-.48-.42-.72-.62-.72-1.46-3.1-1.79-2.69-4.03.06-.34-.3-.39-.59-.23-1.21.65-1.85-.73-2.86-.78-.42-.41-.84-.83-1.26-1.24-.12-.53-.61-1.24.03-1.54,1.07-.51,1.85-1.16,2.47-2.19.3-.5,1.03.11,1.55.27,2.24,1.8,3.07,4.22,3.07,7.01.49.54.98,1.07,1.45,1.63.65.78.31,1.32-.45,1.75Z"/>
        <path class="cls-3" d="M47.96,24.84c-1.54-.03-3.56-1.8-3.74-3.34-.07-.55-.18-1.2.32-1.59.55-.42,1.09-.01,1.54.31.98.73,1.94,1.51,2.88,2.29.5.41,1.16.85.76,1.63-.35.68-1.1.63-1.75.69Z"/>
        <path class="cls-3" d="M12.89,49.27c-.28,1.2-.97,2.03-2.16,2.41-1.21-1.01-2.41-2.03-3.62-3.04q.93-2.72,2.86-2.31c.76,1.18,1.74,2.16,2.92,2.94Z"/>
        <path class="cls-3" d="M25.1,52.22c.34.45.72.88,1.01,1.36.66,1.1.2,1.56-.96,1.55-.28-.26-.56-.52-.83-.78-.93-1.51-2.87-2.38-2.83-4.5,1.63.15,2.43,1.56,3.62,2.37Z"/>
        <path class="cls-3" d="M19.78,49.27c-.03,1.13.54,1.96,1.31,2.7.62.6.98,1.23.96,2.21-.02,1.82.7,1.23,1.45.32.14-.17.53-.12.81-.17.28.26.55.52.83.78.72,1.2,2.11,1.92,1.71,3.86-.23,1.12,1.47,1.4,2.58,1.58.87,1.68,2.99,2.59,3.01,4.8-.58-.22-1.16-.2-1.75-.05-.72-1.44-2-2.38-3.08-3.49-2.13-2.23-5.45-2.4-7.69-4.44,0-2.78-.83-5.2-3.07-7.01.59-1.38,1.86-.98,2.92-1.11Z"/>
      </g>
    </g>
  </g>
  <path class="cls-4" d="M54.31,24.4c-.46-1.76-1.82-3.15-3.56-3.63-3.16-.87-15.83-.94-15.83-.94,0,0-12.68-.07-15.84.76-1.75.46-3.13,1.83-3.6,3.59-.87,3.18-.9,9.82-.9,9.82,0,0-.04,6.64.79,9.83.46,1.76,1.82,3.15,3.56,3.63,3.16.87,15.83.94,15.83.94,0,0,12.68.07,15.84-.76,1.75-.46,3.13-1.83,3.6-3.59.87-3.18.9-9.82.9-9.82,0,0,.04-6.64-.79-9.83ZM30.65,40.11l.07-12.06,10.56,6.09-10.63,5.97Z"/>
</svg>