<?xml version="1.0" encoding="UTF-8"?>
<svg id="Capa_1" xmlns="http://www.w3.org/2000/svg" version="1.1" viewBox="0 0 3840 2160">
  <!-- Generator: Adobe Illustrator 30.2.1, SVG Export Plug-In . SVG Version: 2.1.1 Build 1)  -->
  <path d="M1722.97,587.02c33.28-32.57,62.81-37.63,88.7-15.07,55.43,45.21,85.01,153.23-3.69,278.75-81.32,113.08-266.16,301.41-354.86,434.51-92.39,140.59-96.14,248.61,29.58,243.55,151.56-5.06,354.86-175.79,484.22-349.05,18.46-22.66,44.35-25.18,59.12-2.53,14.82,22.55,14.82,85.37-33.23,155.66-96.14,138.16-329.02,276.22-532.32,268.74-199.61-7.59-303.13-87.89-303.13-205.93-118.29,102.96-284.62,195.91-462.02,195.91-343.79,0-414.03-319.01-107.21-622.84,299.44-296.25,591.44-409.33,776.28-409.33,158.95,0,232.88,82.94,225.45,180.84,48.09-60.28,92.45-112.98,133.1-153.23ZM1427.23,689.98c-118.29-7.48-388.14,155.76-591.44,379.19-195.91,216.04-243.96,436.94-99.78,439.47,151.56,2.53,343.74-158.19,532.27-379.19,232.88-276.22,266.16-431.88,158.95-439.47Z"/>
  <path d="M2071.85,1183.41c-59.37-1.58-82.81-38.22-63.27-80.67,16.41-35.55,64.05-75.35,97.65-100.83-35.15,14.86-69.53,20.16-95.31,20.16-51.56,80.14-132.81,160.28-214.84,160.28-52.34,0-94.53-40.34-57.03-101.37,15.63-25.99,150.67-172.57,184.26-213.42-25.78-.53-153.64-7.97-160.67-14.88-7.03-6.88-3.12-11.14,8.59-10.6,25,1.05,155.99-.53,174.74-1.6,24.22-29.18,45.31-54.12,59.37-65.8,7.03-7.44,14.85-6.9,18.75,0,8.59,14.32,7.81,32.9-10.93,61.03,127.66,0,157.52,10.09,164.55,18.58,4.68,5.84-116.89,8.49-128.62,7.95-15.63-.53-35.15-.53-56.25.53-30.46,36.08-177.23,188.5-206.91,233.07-26.56,39.82-15.63,72.19,16.41,71.65,46.87-1.05,128.9-66.33,177.34-148.61-58.59-15.9,17.97-87.56,50-88.63,25.78-1.07,17.97,31.85-3.12,66.35,27.34-1.6,56.24-10.62,85.15-24.43,10.15-4.77,15.63-6.35,22.66-1.05,14.84,11.67,35.15,35.55,11.71,53.59-37.49,28.67-76.56,64.24-89.84,92.37-14.05,29.18-3.9,50.41,19.54,50.94,32.02,1.07,71.87-33.43,97.65-73.24,3.13-4.25,8.59-5.32,11.72,0,3.9,6.37,5.46,19.62-3.91,34.5-19.53,31.83-66.41,55.19-109.37,54.12Z"/>
  <path d="M2165.58,1104.88c19.54-38.76,71.1-101.39,100-128.98,7.03-6.37,12.51-7.95,18.75-3.19,11.72,8.51,17.98,31.32-.78,57.87-16.41,23.34-49.22,59.43-65.63,85.98-18.75,30.78-17.19,51.47,7.81,50.41,35.16-1.05,78.13-36.08,101.57-72.7,3.9-4.79,9.37-4.25,12.49,0,6.25,8.49,3.91,19.64-5.47,32.9-23.43,32.92-72.65,55.19-116.4,55.19-59.37,0-74.21-33.97-52.34-77.47Z"/>
  <path d="M2624.94,1094.79c4.69-7.44,13.29-5.32,14.85,0,1.56,4.77,3.13,18.58-10.15,35.01-29.69,36.64-82.81,54.15-139.06,56.8-50,2.12-82.81-2.65-110.15-19.64-16.41-10.07-24.22-22.27-26.56-35.55-36.72,45.64-76.56,99.78-114.06,158.7-3.12,4.77-8.59,5.84-13.27,1.05-11.72-11.14-15.63-25.99-.79-58.38,23.44-51.47,154.69-219.73,203.91-264.3,7.81-6.9,14.85-5.84,18.75.53,3.91,6.88,5.47,14.86,4.69,23.88,34.37-20.18,80.46-35.04,114.05-11.16,37.5,27.08,20.32,74.3-8.59,117.83-23.43,35.04-52.34,60.52-82.02,72.72,76.56-3.19,123.43-41.41,148.43-77.49ZM2396.04,1155.82c25,13.81,75.78-24.95,112.49-75.89,30.47-42.47,39.07-86.51,19.54-92.88-18.75-6.37-67.19,20.16-103.91,61.03-8.59,9.56-17.19,19.11-26.56,30.25-19.53,33.43-23.44,65.28-1.56,77.49Z"/>
  <path d="M2926.5,1094.79c4.69-7.44,13.29-5.32,14.85,0,1.56,4.77,3.13,18.58-10.15,35.01-29.69,36.64-82.81,54.15-139.06,56.8-50,2.12-82.81-2.65-110.15-19.64-16.41-10.07-24.22-22.27-26.56-35.55-36.72,45.64-76.56,99.78-114.06,158.7-3.12,4.77-8.59,5.84-13.27,1.05-11.72-11.14-15.63-25.99-.79-58.38,23.44-51.47,154.69-219.73,203.91-264.3,7.81-6.9,14.85-5.84,18.75.53,3.91,6.88,5.47,14.86,4.69,23.88,34.37-20.18,80.46-35.04,114.05-11.16,37.5,27.08,20.32,74.3-8.59,117.83-23.43,35.04-52.34,60.52-82.02,72.72,76.56-3.19,123.43-41.41,148.43-77.49ZM2697.6,1155.82c25,13.81,75.78-24.95,112.49-75.89,30.47-42.47,39.07-86.51,19.54-92.88-18.75-6.37-67.19,20.16-103.91,61.03-8.59,9.56-17.19,19.11-26.56,30.25-19.53,33.43-23.44,65.28-1.56,77.49Z"/>
  <path d="M3330.38,1182.35c-59.37-2.12-82.81-38.2-63.27-81.19,16.41-35.57,63.27-74.84,96.87-100.32-34.37,14.86-69.53,20.18-93.75,20.18-64.85,92.35-149.22,159.21-242.18,160.28-99.22,1.05-132.81-64.75-82.03-132.68,49.22-65.82,128.91-95.53,167.96-80.14,19.54,7.95,33.59,15.39,46.1,27.06,13.29,12.74,5.47,44.06-25.78,71.12-36.72,32.36-89.06,45.64-143.75,15.93-25,48.29-5.47,82.79,34.37,83.86,85.93,2.65,171.87-81.21,214.84-148.61-60.16-16.99,16.41-87.58,49.21-88.65,24.22-.51,16.41,31.85-3.12,66.35,27.34-2.65,54.69-11.14,85.15-24.95,9.37-4.25,16.41-6.9,21.88-1.58,15.63,11.67,35.15,37.13,11.71,54.66-36.71,27.6-76.56,63.68-89.83,92.35-13.29,29.18-3.91,50.43,19.53,50.94,32.81,1.07,72.66-33.97,97.66-73.24,3.12-4.25,8.59-5.3,11.71-.53,3.9,5.84,5.47,19.64-3.9,34.5-19.54,31.85-66.41,56.26-109.38,54.66ZM3089.77,1044.9c25-21.76,41.4-49.36,31.24-55.19-17.19-10.09-81.24,23.34-117.19,72.17-2.34,2.67-3.9,6.37-6.25,9.04,38.29,15.9,68.76-5.86,92.2-26.02Z"/>
  <path d="M2390.13,746.11c6.51-7.78,10.31-5.99,8.45,3.98l-10.35,55.52c-1.86,9.97,4.92,18.13,15.06,18.13h59.62c10.15,0,11.11,3.89,2.15,8.63l-74.48,39.46c-8.96,4.75-17.82,16.79-19.68,26.77l-10.35,55.52c-1.86,9.97-8.81,11.86-15.45,4.18l-24.93-28.82c-6.64-7.67-19.4-10.07-28.37-5.32l-74.48,39.46c-8.96,4.75-10.97,2.27-4.47-5.52l53.09-63.48c6.51-7.78,6.4-20.43-.23-28.1l-24.93-28.82c-6.64-7.67-3.77-13.95,6.38-13.95h59.62c10.15,0,23.77-6.37,30.28-14.15l53.09-63.48Z"/>
</svg>