<?xml version="1.0" encoding="UTF-8"?>
<svg id="Capa_1" data-name="Capa 1" xmlns="http://www.w3.org/2000/svg" viewBox="0 0 740.07 354.96">
  <defs>
    <style>
      .cls-1 {
        fill: #9e0612;
      }

      .cls-2 {
        fill: #fff;
      }
    </style>
  </defs>
  <path class="cls-2" d="M737.36,130.89c-1.71-2.61-4.22-4.52-7.08-5.47,1.59-2.64,2.43-5.63,2.43-8.79,0-8.95-6.74-15.23-9.57-17.47-4.6-4.03-10.41-4.56-17.29-1.59-.36-1.16-.86-2.27-1.49-3.33-2.77-4.64-7.88-7.37-13.57-7.22-.05,0-.09,0-.14,0-8.3.27-19.24,7.32-24.8,16.15-3.74-2.77-7.62-4.56-11.32-6.06-.04-.02-.08-.03-.12-.05-13.19-5.2-32.51,1.43-46.57,15.04-2.11-5.26-5.79-8.67-8.4-10.54-7.61-5.41-17.39-6.47-27.89-3.27-1.96-1.59-4.3-2.64-6.81-3.01-4.39-.66-8.81.75-12.45,3.96-.04.03-.07.06-.11.1-3.73,3.38-8.81,8.96-14.21,15.35-1.8-6.75-6.25-10.96-9.25-13.12-7.61-5.41-17.39-6.47-27.89-3.27-1.96-1.58-4.29-2.64-6.8-3.01-2.31-.35-4.63-.11-6.84.65l.08-.44,16.17-8.57c7.28-3.86,8.57-10.45,7.46-14.93-1.11-4.48-5.33-9.7-13.58-9.7h-3.86l.57-3.07c1.49-8.02-2.8-13.13-6.94-15.08-4.14-1.95-10.82-2-16.05,4.25l-11.63,13.9h-12.7c-5.52,0-10.31,2.72-12.73,7.16-4.74-2.22-12.38-3.57-26.44-4.1-.3-3.48-1.44-6.36-2.79-8.63-2.31-3.97-6.16-6.55-10.61-7.09-4.41-.54-8.84,1.03-12.26,4.31-3.23,2.78-7.06,7.1-11.55,12.44-1.62.03-3.52.07-5.59.1,3.37-9.23,4.73-18.47,3.99-27.36-1.12-13.35-7.09-25.38-16.4-33.05-7.26-6.24-14.6-6.57-19.5-5.73-5.98,1.02-11.69,4.25-17.48,9.92-4.99,4.94-10.37,10.79-16.59,18.06-1.78-3.21-3.96-6.21-6.5-8.96C284.23,10.66,268.58.3,239.74.3c-25.42,0-55.23,8.01-86.21,23.16-35.62,17.42-70.7,43.09-104.27,76.3-20.71,20.51-35.69,42.72-43.31,64.24-7.64,21.55-7.93,42.05-.84,59.27,11.26,27.38,39.6,43.08,77.74,43.08,41.55,0,77.23-19.36,100.66-36.47,10.17,23.17,37.88,37.28,78.33,38.81,1.38.05,2.76.08,4.15.08,51.69,0,107.74-34.84,131.03-68.32,7.31-10.69,10.82-21.06,11.69-29.88,5.2-.32,10.5-1.65,15.4-3.83,1.5.85,3.22,1.61,5.19,2.2-3.4,9.64-1.99,17.55,4.22,23.53,3.04,3,7.11,4.49,11.22,4.09,4.19-.41,7.95-2.72,10.32-6.33.03-.04.06-.09.08-.13,5.22-8.2,11.04-16.59,17.14-24.75,8.52,5.08,17.81,6.15,26.92,6.15-2.31,8.49-.63,15.53,5.02,20.98,3.04,3,7.12,4.48,11.23,4.09,4.19-.41,7.95-2.72,10.32-6.34.03-.04.05-.08.08-.12,5.22-8.2,11.03-16.59,17.14-24.75,10.15,6.04,21.39,6.47,32.11,6.02,11.45-.54,21.6-3.3,29.68-7.96,5.37,3.81,13.36,6.86,25.22,6.73,14.85-.17,29.66-6.17,43.35-17.32.55,1.84,1.34,3.59,2.37,5.25,4.67,7.54,13.41,11.92,24.6,12.32,14.15.51,29.36-7.24,36.29-18.47,4.33-6.92,4.63-15.14.76-21.01ZM429.49,98.1c-.48.58-.9,1.16-1.28,1.74-.17-.14-.34-.29-.51-.41-.07-.05-.13-.1-.2-.15-6.79-5.12-13.53-2.85-16.71-1.45-.28-.91-.65-1.78-1.1-2.62,2.29-.06,4.7-.14,6.93-.23,7.58-.31,12.98-.54,16.93-1.72l-4.06,4.85ZM358.39,132.8c3.05-3.47,6.51-7.3,10.01-11.14.02.04.03.07.05.11-3.27,4.31-6.73,8-10.06,11.03ZM124.66,139.92c48.7-53.53,106.35-85.06,127.73-85.06.43,0,.84.01,1.23.04,1.26.09,1.98.32,2.27.45,1.76,3.77-1.3,27.66-47.85,82.88-46.63,54.65-87.37,84.68-114.83,84.68-.21,0-.41,0-.62,0-5.49-.1-6.37-2.12-6.84-3.2-4.36-10.07,5-42.39,38.9-79.78ZM270.53,189.16c10.47-15.72,27.03-35.01,43.47-53.97-3.64,9.94-.97,17.51,1.26,21.51,4.72,8.44,14.57,13.68,25.7,13.68,6.08,0,11.89-1.32,17.34-3.52-30.56,35.25-67,59.95-91.31,60.76-4.98.21-8.75-.64-9.6-2.14-1.38-2.44-1.71-13.75,13.13-36.33Z"/>
  <g>
    <path class="cls-1" d="M727.33,137.48c-.73-1.12-2.02-.87-2.75.13-5.86,9.21-15.21,17.42-22.9,17.17-5.5-.12-7.69-5.1-4.58-11.95,3.11-6.72,12.46-15.18,21.07-21.66,5.5-4.11.92-10.08-2.75-12.82-1.28-1.25-2.93-.63-5.13.37-7.14,3.24-13.56,5.23-19.97,5.85,4.58-8.09,6.41-15.68.73-15.56-7.69.25-25.65,16.8-11.54,20.79-10.08,15.81-30.23,35.47-50.38,34.85-9.34-.25-13.92-8.34-8.06-19.67,12.82,6.97,25.1,3.85,33.71-3.73,7.33-6.35,9.16-13.69,6.05-16.68-2.93-2.74-6.23-4.48-10.81-6.35-9.16-3.61-27.85,3.36-39.39,18.79-3.04,4.06-4.78,8.09-5.32,11.84-6.02,8.15-16.83,16.44-34.07,17.16,6.96-2.86,13.74-8.84,19.23-17.05,6.78-10.21,10.81-21.28,2.02-27.63-7.88-5.6-18.69-2.12-26.75,2.62.18-2.12-.18-3.99-1.1-5.6-.91-1.49-2.56-1.74-4.4-.13-6.66,6.03-19.72,21.71-30.64,36.23-6.4,5.99-15.85,11.02-29.09,11.57,6.96-2.86,13.74-8.84,19.23-17.05,6.78-10.21,10.81-21.28,2.02-27.63-7.88-5.6-18.68-2.12-26.75,2.62.18-2.12-.18-3.99-1.1-5.6-.91-1.49-2.56-1.74-4.4-.13-7.25,6.57-22.1,24.59-33.5,40.07-4.61,3.74-9.74,6.34-14.32,6.47-5.86.25-6.23-4.6-1.83-11.82,3.85-6.23,11.54-14.69,15.39-20.16,4.4-6.23,2.93-11.57.18-13.57-1.46-1.12-2.75-.75-4.4.75-6.78,6.47-18.87,21.16-23.45,30.25-.12.25-.22.48-.33.73-5.97,7.95-14.07,14.3-20.73,14.08-5.5-.13-7.88-5.1-4.58-11.95,3.12-6.6,12.28-14.94,21.07-21.66,5.5-4.23.73-9.83-2.75-12.57-1.65-1.24-2.93-.87-5.31.25-6.78,3.24-13.56,5.35-19.97,5.73,4.95-8.09,6.78-15.81.73-15.56-7.51.25-25.46,17.05-11.72,20.78-11.36,19.29-30.6,34.6-41.59,34.85-7.51.13-10.08-7.46-3.85-16.8,6.96-10.45,41.38-46.19,48.52-54.65,4.95-.25,9.53-.25,13.19-.13,2.75.13,31.26-.5,30.16-1.86-1.65-1.99-8.65-4.36-38.59-4.36,4.4-6.6,4.58-10.95,2.56-14.31-.91-1.62-2.75-1.74-4.4,0-3.3,2.74-8.24,8.59-13.92,15.43-3.14.18-19.68.42-31.03.45,19.15-28.6,12.25-53.06-.46-63.42-6.07-5.29-13-4.1-20.8,3.53-9.53,9.44-19.94,21.8-31.21,35.93,1.74-22.96-15.59-42.41-52.87-42.41-43.35,0-111.82,26.52-182.04,95.99C-14.24,179.54,2.23,254.35,82.85,254.35c41.6,0,80.61-21.8,108.34-45.94,0,27.68,24.28,46.51,71.08,48.29,47.67,1.76,102.28-30.62,124.83-63.02,11.27-16.48,11.27-31.21,7.79-36.5-3.46-5.31-9.53-4.72-13.86.59-30.34,40.63-78.01,80.67-113.55,81.85-29.48,1.19-28.6-24.15-6.94-57.11,20.27-30.42,61.95-73.14,81.71-99.84,9.82,1.01,24.51,1.81,28.55,1.9-7.88,9.58-39.55,43.95-43.21,50.05-8.79,14.31,1.1,23.77,13.37,23.77,19.24,0,38.29-18.79,50.38-37.59,6.05,0,14.11-1.24,22.35-4.73-7.88,5.98-19.05,15.31-22.9,23.65-4.58,9.96.91,18.55,14.84,18.92,7.2.18,14.86-2.58,20.32-6.88,1.52,4.07,6.05,6.63,13.94,6.63,3.29,0,6.72-.54,10.03-1.53-3.85,5.58-6.82,10.33-8.2,13.35-3.48,7.59-2.56,11.08.19,13.69,1.1,1.12,2.38.87,3.11-.25,8.79-13.82,18.14-26.51,26.75-37.21.55,3.11,2.38,5.98,6.23,8.34,6.41,3.99,14.11,5.1,25.83,4.61,6.07-.29,11.97-1.32,17.26-3.18-4.07,5.86-7.22,10.86-8.65,14-3.48,7.59-2.56,11.08.19,13.69,1.1,1.12,2.38.87,3.11-.25,8.79-13.82,18.14-26.51,26.75-37.21.55,3.11,2.38,5.98,6.23,8.34,6.41,3.99,14.11,5.1,25.83,4.61,12.66-.6,24.64-4.42,31.73-12.32,2.84,6.7,10.93,11.21,23.59,11.08,21.8-.25,41.59-15.93,56.79-37.59,5.68,0,13.92-1.25,21.98-4.73-7.88,5.98-18.87,15.18-22.72,23.52-4.58,10.08.91,18.54,14.84,19.04,10.08.38,21.07-5.35,25.65-12.82,2.2-3.48,1.83-6.72.91-8.09ZM624.18,130.13c8.43-11.45,23.45-19.29,27.48-16.92,2.38,1.37-1.46,7.84-7.33,12.94-5.5,4.73-12.64,9.83-21.62,6.1.55-.63.92-1.49,1.47-2.12ZM217.2,145.98c-44.21,51.82-89.28,89.51-124.82,88.92-33.81-.59-22.54-52.39,23.4-103.06,47.67-52.39,110.95-90.67,138.69-88.92,25.14,1.78,17.34,38.28-37.27,103.06ZM481.66,152.16c-5.13-2.86-4.21-10.33.37-18.17,2.2-2.61,4.21-4.85,6.23-7.09,8.61-9.58,19.97-15.81,24.37-14.31,4.58,1.49,2.56,11.82-4.58,21.78-8.61,11.95-20.52,21.03-26.38,17.8ZM552.37,152.16c-5.13-2.86-4.21-10.33.37-18.17,2.2-2.61,4.21-4.85,6.23-7.09,8.61-9.58,19.97-15.81,24.37-14.31,4.58,1.49,2.56,11.82-4.58,21.78-8.61,11.95-20.52,21.03-26.38,17.8Z"/>
    <path class="cls-1" d="M439.74,107.09l17.47-9.25c2.1-1.11,5.1-.55,6.65,1.25l5.85,6.76c1.56,1.8,3.19,1.36,3.62-.98l2.43-13.02c.44-2.34,2.51-5.16,4.62-6.28l17.47-9.25c2.1-1.11,1.88-2.02-.5-2.02h-13.98c-2.38,0-3.97-1.91-3.53-4.25l2.43-13.02c.44-2.34-.46-2.76-1.98-.93l-12.45,14.89c-1.53,1.82-4.72,3.32-7.1,3.32h-13.98c-2.38,0-3.05,1.47-1.5,3.27l5.85,6.76c1.56,1.8,1.58,4.76.05,6.59l-12.45,14.89c-1.53,1.82-1.05,2.41,1.05,1.29Z"/>
  </g>
  <g>
    <path class="cls-2" d="M79.72,346.02l12.4-31.55h3.37l12.1,31.55h-3.07l-3.64-9.9h-14.37l-3.73,9.9h-3.07ZM87.52,333.58h12.36l-6.18-16.57-6.18,16.57Z"/>
    <path class="cls-2" d="M126.96,323.32v25.72c0,.96-.04,1.81-.13,2.54s-.28,1.35-.59,1.86c-.31.51-.76.89-1.36,1.14-.6.25-1.42.37-2.48.37-.64,0-1.21-.06-1.71-.18v-2.32c.76.09,1.37.09,1.84.02.47-.07.83-.24,1.1-.5s.45-.61.55-1.05c.1-.44.15-.95.15-1.53v-26.08h2.63ZM127.09,318.37h-2.89v-3.9h2.89v3.9Z"/>
    <path class="cls-2" d="M142.38,346.64c-1.46-.03-2.83-.29-4.1-.79-1.27-.5-2.38-1.24-3.33-2.23-.95-.99-1.7-2.23-2.26-3.73-.56-1.49-.83-3.23-.83-5.21,0-1.67.22-3.22.66-4.67.44-1.45,1.1-2.71,1.97-3.79s1.97-1.94,3.29-2.56,2.85-.94,4.6-.94,3.33.31,4.65.94c1.31.63,2.41,1.48,3.29,2.54s1.53,2.33,1.95,3.79.64,3.02.64,4.69c0,1.81-.25,3.45-.75,4.91s-1.2,2.72-2.13,3.77c-.92,1.05-2.03,1.86-3.33,2.43-1.3.57-2.74.86-4.32.86ZM150.1,334.67c0-1.34-.15-2.6-.44-3.77-.29-1.17-.74-2.18-1.36-3.05-.61-.86-1.4-1.54-2.37-2.04-.96-.5-2.15-.75-3.55-.75s-2.55.27-3.53.81c-.98.54-1.77,1.26-2.39,2.15-.61.89-1.07,1.91-1.36,3.07-.29,1.16-.44,2.34-.44,3.57,0,1.4.17,2.7.5,3.88.34,1.18.82,2.2,1.47,3.05.64.85,1.45,1.5,2.41,1.97.96.47,2.07.7,3.33.7,1.37,0,2.55-.27,3.53-.81.98-.54,1.77-1.26,2.39-2.17.61-.9,1.07-1.93,1.36-3.07.29-1.14.44-2.32.44-3.55Z"/>
    <path class="cls-2" d="M173.11,323.32h2.63v22.7h-2.63v-3.16c-.35.41-.75.83-1.18,1.27s-.94.84-1.51,1.2c-.57.37-1.23.67-1.99.92-.76.25-1.64.37-2.63.37-1.52,0-2.79-.21-3.81-.64-1.02-.42-1.85-1.01-2.48-1.77-.63-.76-1.08-1.64-1.36-2.65-.28-1.01-.42-2.11-.42-3.31v-14.94h2.63v14.9c0,1.96.45,3.46,1.36,4.49.91,1.04,2.4,1.56,4.47,1.56,1.08,0,2.05-.21,2.91-.64.86-.42,1.58-1.01,2.17-1.78.58-.76,1.04-1.67,1.36-2.72.32-1.05.48-2.21.48-3.46v-12.36Z"/>
    <path class="cls-2" d="M184.85,346.02h-2.63v-22.7h2.63v4.25h.09c.73-1.81,1.67-3.08,2.83-3.79,1.15-.71,2.68-1.07,4.58-1.07v2.85c-1.49-.03-2.72.21-3.68.7-.96.5-1.73,1.17-2.3,2.02-.57.85-.96,1.85-1.18,3s-.33,2.36-.33,3.62v11.13Z"/>
    <path class="cls-2" d="M199.31,346.02h-2.63v-22.7h2.63v3.15c1.05-1.11,2.14-2.02,3.26-2.72,1.12-.7,2.48-1.05,4.05-1.05,1.4,0,2.7.24,3.9.72,1.2.48,2.21,1.32,3.02,2.52.55.82.88,1.66.99,2.52.1.86.15,1.76.15,2.7v14.86h-2.63v-14.81c0-2.04-.45-3.58-1.36-4.6-.91-1.02-2.41-1.53-4.51-1.53-.82,0-1.56.13-2.23.37-.67.25-1.28.58-1.82.99-.54.41-1,.88-1.38,1.4-.38.53-.67,1.08-.88,1.67-.26.73-.42,1.43-.48,2.1-.06.67-.09,1.4-.09,2.19v12.23Z"/>
    <path class="cls-2" d="M222.67,335.29c0,1.23.16,2.39.48,3.48.32,1.1.8,2.04,1.42,2.85.63.8,1.42,1.45,2.39,1.93.96.48,2.07.72,3.33.72,1.72,0,3.2-.45,4.43-1.36,1.23-.91,2.04-2.19,2.45-3.86h2.94c-.32,1.08-.74,2.08-1.27,3-.53.92-1.18,1.72-1.97,2.41-.79.69-1.72,1.22-2.8,1.6-1.08.38-2.34.57-3.77.57-1.81,0-3.37-.31-4.69-.92-1.31-.61-2.4-1.45-3.24-2.52-.85-1.07-1.48-2.32-1.88-3.77-.41-1.45-.61-3-.61-4.67s.24-3.23.72-4.69,1.17-2.74,2.06-3.84c.89-1.09,1.98-1.96,3.26-2.59,1.29-.63,2.75-.94,4.38-.94,3.13,0,5.58,1.07,7.36,3.22,1.78,2.15,2.66,5.27,2.63,9.36h-17.62ZM237.48,333.1c0-1.11-.15-2.15-.46-3.13-.31-.98-.76-1.83-1.36-2.54-.6-.71-1.35-1.29-2.26-1.71-.91-.42-1.94-.64-3.11-.64s-2.2.22-3.09.66c-.89.44-1.65,1.02-2.28,1.75-.63.73-1.13,1.58-1.51,2.54-.38.96-.63,1.99-.75,3.07h14.81Z"/>
    <path class="cls-2" d="M245.24,352.16c.35.06.71.12,1.07.17s.74.09,1.12.09c.73,0,1.33-.23,1.8-.7.47-.47.86-1.03,1.16-1.69.31-.66.56-1.34.77-2.06.2-.72.44-1.32.7-1.82l-8.81-22.84h2.94l7.28,19.5,7.27-19.5h2.85l-8.46,22.39c-.53,1.43-1.03,2.72-1.51,3.86-.48,1.14-.99,2.11-1.53,2.91-.54.8-1.14,1.42-1.8,1.84-.66.42-1.44.64-2.34.64-.47,0-.91-.03-1.34-.09s-.81-.13-1.16-.22v-2.5Z"/>
    <path class="cls-2" d="M279.77,318.37v-3.9h2.89v3.9h-2.89ZM279.9,346.02v-22.7h2.63v22.7h-2.63Z"/>
    <path class="cls-2" d="M291.87,346.02h-2.63v-22.7h2.63v3.15c1.05-1.11,2.14-2.02,3.26-2.72,1.12-.7,2.48-1.05,4.05-1.05,1.4,0,2.7.24,3.9.72s2.21,1.32,3.02,2.52c.56.82.88,1.66.99,2.52.1.86.15,1.76.15,2.7v14.86h-2.63v-14.81c0-2.04-.45-3.58-1.36-4.6-.91-1.02-2.41-1.53-4.51-1.53-.82,0-1.56.13-2.23.37-.67.25-1.28.58-1.82.99-.54.41-1,.88-1.38,1.4-.38.53-.67,1.08-.88,1.67-.26.73-.42,1.43-.48,2.1-.06.67-.09,1.4-.09,2.19v12.23Z"/>
    <path class="cls-2" d="M321.58,346.11c-.32.06-.74.16-1.27.31-.53.15-1.11.22-1.75.22-1.31,0-2.32-.33-3-.99s-1.03-1.83-1.03-3.53v-16.61h-3.2v-2.19h3.2v-6.31h2.63v6.31h4.25v2.19h-4.25v15.56c0,.56.02,1.04.04,1.45.03.41.12.75.26,1.01.15.26.37.45.68.57.31.12.74.17,1.29.17.35,0,.71-.03,1.07-.09.37-.06.72-.13,1.07-.22v2.15Z"/>
    <path class="cls-2" d="M334.81,346.64c-1.46-.03-2.83-.29-4.1-.79-1.27-.5-2.38-1.24-3.33-2.23-.95-.99-1.7-2.23-2.26-3.73-.56-1.49-.83-3.23-.83-5.21,0-1.67.22-3.22.66-4.67.44-1.45,1.1-2.71,1.97-3.79s1.97-1.94,3.29-2.56,2.85-.94,4.6-.94,3.33.31,4.65.94c1.31.63,2.41,1.48,3.29,2.54s1.53,2.33,1.95,3.79c.42,1.46.64,3.02.64,4.69,0,1.81-.25,3.45-.74,4.91-.5,1.46-1.21,2.72-2.13,3.77-.92,1.05-2.03,1.86-3.33,2.43-1.3.57-2.74.86-4.32.86ZM342.53,334.67c0-1.34-.15-2.6-.44-3.77-.29-1.17-.75-2.18-1.36-3.05-.61-.86-1.4-1.54-2.37-2.04-.96-.5-2.15-.75-3.55-.75s-2.55.27-3.53.81c-.98.54-1.77,1.26-2.39,2.15s-1.07,1.91-1.36,3.07c-.29,1.16-.44,2.34-.44,3.57,0,1.4.17,2.7.5,3.88.34,1.18.82,2.2,1.47,3.05.64.85,1.45,1.5,2.41,1.97.96.47,2.07.7,3.33.7,1.37,0,2.55-.27,3.53-.81.98-.54,1.77-1.26,2.39-2.17.61-.9,1.07-1.93,1.36-3.07.29-1.14.44-2.32.44-3.55Z"/>
    <path class="cls-2" d="M362.73,346.02v-31.55h2.63v31.55h-2.63Z"/>
    <path class="cls-2" d="M372.33,318.37v-3.9h2.89v3.9h-2.89ZM372.46,346.02v-22.7h2.63v22.7h-2.63Z"/>
    <path class="cls-2" d="M384.07,346.02h-2.63v-22.7h2.63v3.42h.09c.67-1.31,1.64-2.32,2.89-3s2.63-1.03,4.12-1.03c1.05,0,1.94.12,2.67.35.73.23,1.35.55,1.86.94.51.39.94.85,1.27,1.38.34.53.62,1.1.86,1.71.76-1.49,1.77-2.59,3.05-3.31,1.27-.71,2.72-1.07,4.36-1.07,1.55,0,2.78.26,3.7.77.92.51,1.63,1.18,2.12,2.02.5.83.83,1.79.99,2.87.16,1.08.24,2.19.24,3.33v14.33h-2.63v-15.69c0-1.64-.34-2.92-1.03-3.86-.69-.93-1.97-1.4-3.83-1.4-.96,0-1.89.21-2.78.64-.89.42-1.67,1.07-2.34,1.95-.29.38-.53.83-.72,1.34-.19.51-.34,1.05-.46,1.6-.12.56-.2,1.11-.24,1.67-.04.56-.07,1.07-.07,1.53v12.23h-2.63v-15.69c0-1.64-.34-2.92-1.03-3.86-.69-.93-1.97-1.4-3.83-1.4-.96,0-1.89.21-2.78.64-.89.42-1.67,1.07-2.34,1.95-.29.38-.53.83-.72,1.34-.19.51-.34,1.05-.46,1.6-.12.56-.2,1.11-.24,1.67-.04.56-.07,1.07-.07,1.53v12.23Z"/>
    <path class="cls-2" d="M418.56,318.37v-3.9h2.89v3.9h-2.89ZM418.69,346.02v-22.7h2.63v22.7h-2.63Z"/>
    <path class="cls-2" d="M436,346.11c-.32.06-.75.16-1.27.31-.53.15-1.11.22-1.75.22-1.31,0-2.32-.33-3-.99-.69-.66-1.03-1.83-1.03-3.53v-16.61h-3.2v-2.19h3.2v-6.31h2.63v6.31h4.25v2.19h-4.25v15.56c0,.56.01,1.04.04,1.45.03.41.12.75.26,1.01.15.26.37.45.68.57.31.12.74.17,1.29.17.35,0,.71-.03,1.07-.09.36-.06.72-.13,1.07-.22v2.15Z"/>
    <path class="cls-2" d="M440.6,346.02v-31.55h2.63v31.55h-2.63Z"/>
    <path class="cls-2" d="M451.56,335.29c0,1.23.16,2.39.48,3.48.32,1.1.8,2.04,1.42,2.85s1.42,1.45,2.39,1.93,2.07.72,3.33.72c1.72,0,3.2-.45,4.43-1.36s2.04-2.19,2.45-3.86h2.94c-.32,1.08-.75,2.08-1.27,3-.53.92-1.18,1.72-1.97,2.41-.79.69-1.73,1.22-2.81,1.6-1.08.38-2.34.57-3.77.57-1.81,0-3.37-.31-4.69-.92-1.31-.61-2.4-1.45-3.24-2.52s-1.48-2.32-1.88-3.77-.61-3-.61-4.67.24-3.23.72-4.69,1.17-2.74,2.06-3.84c.89-1.09,1.98-1.96,3.26-2.59,1.28-.63,2.75-.94,4.38-.94,3.13,0,5.58,1.07,7.36,3.22,1.78,2.15,2.66,5.27,2.63,9.36h-17.62ZM466.37,333.1c0-1.11-.15-2.15-.46-3.13-.31-.98-.76-1.83-1.36-2.54-.6-.71-1.35-1.29-2.26-1.71s-1.94-.64-3.11-.64-2.2.22-3.09.66c-.89.44-1.65,1.02-2.28,1.75-.63.73-1.13,1.58-1.51,2.54-.38.96-.63,1.99-.75,3.07h14.81Z"/>
    <path class="cls-2" d="M475.84,338.92c.41,1.96,1.15,3.34,2.21,4.14s2.59,1.2,4.58,1.2c.96,0,1.8-.12,2.5-.35.7-.23,1.28-.55,1.73-.94.45-.39.8-.84,1.03-1.34.23-.5.35-1.02.35-1.58,0-1.11-.36-1.93-1.07-2.48-.72-.54-1.61-.96-2.69-1.27-1.08-.31-2.25-.57-3.51-.79-1.26-.22-2.43-.55-3.51-.99-1.08-.44-1.98-1.07-2.7-1.88s-1.07-1.97-1.07-3.46c0-1.9.69-3.45,2.08-4.67,1.39-1.21,3.35-1.82,5.89-1.82s4.45.55,5.98,1.64,2.46,2.93,2.78,5.5h-2.67c-.23-1.75-.9-2.99-1.99-3.7s-2.48-1.07-4.14-1.07-2.94.36-3.81,1.07-1.31,1.66-1.31,2.83c0,1.02.36,1.8,1.07,2.34.71.54,1.61.98,2.69,1.31,1.08.34,2.25.64,3.51.9s2.42.64,3.51,1.12c1.08.48,1.98,1.13,2.7,1.95.71.82,1.07,1.96,1.07,3.42,0,1.08-.23,2.04-.7,2.87-.47.83-1.11,1.53-1.93,2.08-.82.56-1.79.97-2.91,1.25-1.12.28-2.36.42-3.7.42s-2.53-.2-3.57-.59c-1.04-.39-1.92-.94-2.65-1.64-.73-.7-1.3-1.52-1.71-2.45-.41-.93-.64-1.94-.7-3.02h2.67Z"/>
    <path class="cls-2" d="M497.75,338.92c.41,1.96,1.15,3.34,2.21,4.14s2.59,1.2,4.58,1.2c.96,0,1.8-.12,2.5-.35.7-.23,1.28-.55,1.73-.94.45-.39.8-.84,1.03-1.34.23-.5.35-1.02.35-1.58,0-1.11-.36-1.93-1.07-2.48-.72-.54-1.61-.96-2.69-1.27-1.08-.31-2.25-.57-3.51-.79-1.26-.22-2.43-.55-3.51-.99-1.08-.44-1.98-1.07-2.7-1.88s-1.07-1.97-1.07-3.46c0-1.9.69-3.45,2.08-4.67,1.39-1.21,3.35-1.82,5.89-1.82s4.45.55,5.98,1.64,2.46,2.93,2.78,5.5h-2.67c-.23-1.75-.9-2.99-1.99-3.7s-2.48-1.07-4.14-1.07-2.94.36-3.81,1.07-1.31,1.66-1.31,2.83c0,1.02.36,1.8,1.07,2.34.71.54,1.61.98,2.69,1.31,1.08.34,2.25.64,3.51.9s2.42.64,3.51,1.12c1.08.48,1.98,1.13,2.7,1.95.71.82,1.07,1.96,1.07,3.42,0,1.08-.23,2.04-.7,2.87-.47.83-1.11,1.53-1.93,2.08-.82.56-1.79.97-2.91,1.25-1.12.28-2.36.42-3.7.42s-2.53-.2-3.57-.59c-1.04-.39-1.92-.94-2.65-1.64-.73-.7-1.3-1.52-1.71-2.45-.41-.93-.64-1.94-.7-3.02h2.67Z"/>
    <path class="cls-2" d="M533.25,346.02h-2.63v-31.55h2.63v12.49c.85-1.4,2.01-2.46,3.48-3.18,1.48-.71,3.02-1.07,4.62-1.07,1.72,0,3.22.33,4.49.99,1.27.66,2.32,1.53,3.15,2.63.83,1.1,1.45,2.37,1.86,3.83.41,1.46.61,2.98.61,4.56,0,1.67-.19,3.23-.57,4.69-.38,1.46-.99,2.72-1.82,3.79s-1.89,1.91-3.18,2.52c-1.29.61-2.85.92-4.69.92-.73,0-1.48-.1-2.23-.31-.76-.21-1.5-.5-2.21-.88-.72-.38-1.37-.85-1.97-1.42-.6-.57-1.09-1.23-1.47-1.99h-.09v3.99ZM533.25,334.59c0,1.37.17,2.65.5,3.84.34,1.18.82,2.21,1.47,3.07.64.86,1.45,1.54,2.41,2.04.96.5,2.06.75,3.29.75,1.11,0,2.13-.2,3.07-.59.94-.39,1.75-.97,2.45-1.73.7-.76,1.25-1.69,1.64-2.78.39-1.09.59-2.36.59-3.79.06-1.43-.06-2.77-.35-4.01-.29-1.24-.76-2.33-1.4-3.26-.64-.94-1.47-1.67-2.48-2.21-1.01-.54-2.18-.81-3.53-.81-1.2,0-2.27.26-3.22.77-.95.51-1.75,1.2-2.41,2.06-.66.86-1.16,1.87-1.51,3.02s-.53,2.37-.53,3.66Z"/>
    <path class="cls-2" d="M558.71,335.29c0,1.23.16,2.39.48,3.48.32,1.1.8,2.04,1.42,2.85s1.42,1.45,2.39,1.93,2.07.72,3.33.72c1.72,0,3.2-.45,4.43-1.36s2.04-2.19,2.45-3.86h2.94c-.32,1.08-.75,2.08-1.27,3-.53.92-1.18,1.72-1.97,2.41-.79.69-1.72,1.22-2.81,1.6-1.08.38-2.34.57-3.77.57-1.81,0-3.37-.31-4.69-.92-1.31-.61-2.4-1.45-3.24-2.52s-1.48-2.32-1.88-3.77-.61-3-.61-4.67.24-3.23.72-4.69,1.17-2.74,2.06-3.84c.89-1.09,1.98-1.96,3.26-2.59,1.28-.63,2.75-.94,4.38-.94,3.13,0,5.58,1.07,7.36,3.22,1.78,2.15,2.66,5.27,2.63,9.36h-17.62ZM573.52,333.1c0-1.11-.15-2.15-.46-3.13-.31-.98-.76-1.83-1.36-2.54-.6-.71-1.35-1.29-2.26-1.71s-1.94-.64-3.11-.64-2.2.22-3.09.66c-.89.44-1.65,1.02-2.28,1.75-.63.73-1.13,1.58-1.51,2.54-.38.96-.63,1.99-.75,3.07h14.81Z"/>
    <path class="cls-2" d="M591.88,332.79c.5-.06,1.09-.15,1.78-.26.69-.12,1.25-.28,1.69-.48.44-.2.71-.55.81-1.03.1-.48.15-.93.15-1.34,0-1.34-.43-2.45-1.29-3.31-.86-.86-2.32-1.29-4.36-1.29-.91,0-1.74.08-2.5.24s-1.42.44-1.99.83c-.57.39-1.04.92-1.4,1.58-.37.66-.61,1.48-.72,2.48h-2.67c.09-1.34.39-2.49.92-3.44.53-.95,1.2-1.72,2.04-2.32s1.8-1.04,2.89-1.31c1.1-.28,2.26-.42,3.48-.42,1.14,0,2.21.12,3.22.37s1.88.64,2.63,1.18c.74.54,1.33,1.26,1.75,2.17.42.91.64,2.02.64,3.33v12.36c0,1.02.18,1.67.55,1.95s1.1.21,2.21-.2v2.06c-.21.06-.5.15-.9.26-.39.12-.78.17-1.16.17-.41,0-.8-.04-1.18-.13-.44-.06-.79-.2-1.05-.42s-.48-.48-.64-.79c-.16-.31-.27-.64-.33-1.01-.06-.36-.09-.75-.09-1.16-1.11,1.23-2.38,2.16-3.81,2.81-1.43.64-2.98.96-4.65.96-.99,0-1.95-.13-2.87-.39-.92-.26-1.73-.67-2.43-1.23-.7-.55-1.26-1.23-1.67-2.04-.41-.8-.61-1.76-.61-2.87,0-3.86,2.64-6.13,7.93-6.84l3.64-.48ZM596.31,334.1c-1.11.47-2.23.77-3.38.92-1.14.15-2.28.26-3.42.35-2.02.15-3.59.6-4.71,1.36-1.12.76-1.69,1.91-1.69,3.46,0,.7.14,1.31.42,1.82.28.51.64.94,1.1,1.27.45.34.98.58,1.58.74.6.16,1.2.24,1.82.24,1.05,0,2.07-.13,3.07-.39.99-.26,1.88-.66,2.65-1.21.77-.54,1.4-1.23,1.86-2.06.47-.83.7-1.82.7-2.96v-3.55Z"/>
    <path class="cls-2" d="M621.2,323.32h2.63v22.7h-2.63v-3.16c-.35.41-.75.83-1.18,1.27s-.94.84-1.51,1.2c-.57.37-1.24.67-1.99.92-.76.25-1.64.37-2.63.37-1.52,0-2.79-.21-3.81-.64-1.02-.42-1.85-1.01-2.48-1.77s-1.08-1.64-1.36-2.65c-.28-1.01-.42-2.11-.42-3.31v-14.94h2.63v14.9c0,1.96.45,3.46,1.36,4.49.9,1.04,2.4,1.56,4.47,1.56,1.08,0,2.05-.21,2.91-.64.86-.42,1.58-1.01,2.17-1.78.58-.76,1.04-1.67,1.36-2.72.32-1.05.48-2.21.48-3.46v-12.36Z"/>
    <path class="cls-2" d="M638.16,346.11c-.32.06-.75.16-1.27.31-.53.15-1.11.22-1.75.22-1.31,0-2.32-.33-3-.99-.69-.66-1.03-1.83-1.03-3.53v-16.61h-3.2v-2.19h3.2v-6.31h2.63v6.31h4.25v2.19h-4.25v15.56c0,.56.01,1.04.04,1.45.03.41.12.75.26,1.01.15.26.37.45.68.57.31.12.74.17,1.29.17.35,0,.71-.03,1.07-.09.36-.06.72-.13,1.07-.22v2.15Z"/>
    <path class="cls-2" d="M642.19,352.16c.35.06.71.12,1.07.17s.74.09,1.12.09c.73,0,1.33-.23,1.8-.7.47-.47.85-1.03,1.16-1.69.31-.66.56-1.34.77-2.06.2-.72.44-1.32.7-1.82l-8.81-22.84h2.94l7.28,19.5,7.27-19.5h2.85l-8.46,22.39c-.53,1.43-1.03,2.72-1.51,3.86-.48,1.14-.99,2.11-1.53,2.91-.54.8-1.14,1.42-1.8,1.84-.66.42-1.44.64-2.34.64-.47,0-.91-.03-1.34-.09-.42-.06-.81-.13-1.16-.22v-2.5Z"/>
  </g>
</svg>